
<svg xmlns="http://www.w3.org/2000/svg" version="1.1" xmlns:xlink="http://www.w3.org/1999/xlink" preserveAspectRatio="none" x="0px" y="0px" width="24px" height="24px" viewBox="0 0 24 24">
<defs>
<g id="Layer5_0_FILL">
<path fill="#333333" stroke="none" d="
M 22 12
Q 22 9.9 21.2 8.1 20.45 6.25 19.1 4.9 17.7 3.55 15.9 2.75 14.05 2 12 2 9.95 2 8.1 2.75 6.3 3.55 4.9 4.9 3.55 6.25 2.8 8.1 2 9.9 2 12 2 14.05 2.8 15.85 3.55 17.7 4.9 19.05 6.3 20.4 8.1 21.2 9.95 22 12 22 14.05 22 15.9 21.2 17.7 20.4 19.1 19.05 20.45 17.7 21.2 15.85 22 14.05 22 12
M 20.25 10.3
Q 20.4 11.15 20.4 12 20.4 12.85 20.25 13.65 20.05 14.5 19.75 15.25 19.4 16 18.95 16.65 18.5 17.35 17.95 17.9 17.35 18.5 16.7 18.95 16 19.4 15.25 19.7
L 14.9 19.9 14.5 20 14.5 18.5
Q 14.5 17.9 14.3 17.45 14.1 17.05 13.7 16.75
L 15.05 16.5 15.95 16.2 16.35 16 16.75 15.7 17.4 15 17.9 14.05 18.15 12.75
Q 18.15 12.4 18.15 12 18.15 11.25 17.95 10.6 17.7 9.95 17.2 9.45 17.4 8.85 17.4 8.2 17.35 7.55 17.1 6.9
L 16.85 6.85 16.5 6.9 15.95 7.05 14.45 7.85 13.25 7.6 10.8 7.6 9.65 7.85 8.25 7.1 7.65 6.9 7.4 6.9 7.2 6.85 7.05 6.85
Q 7.05 6.9 7 6.9 6.75 7.6 6.7 8.2 6.65 8.85 6.9 9.45 6.4 9.95 6.15 10.6 5.9 11.25 5.9 12
L 5.95 12.75 6.2 14.05 6.4 14.55 6.7 15 7 15.35 7.7 16 8.1 16.2 9.9 16.7 10.4 16.75
Q 10 17.05 9.8 17.45 9.6 17.9 9.6 18.5
L 9.6 20 9.15 19.9 8.75 19.7
Q 8 19.4 7.3 18.95 6.65 18.5 6.05 17.9 5.5 17.35 5.05 16.65 4.6 16 4.25 15.25 3.95 14.5 3.75 13.65 3.6 12.85 3.6 12 3.6 11.15 3.75 10.3 3.95 9.5 4.25 8.7 4.6 7.95 5.05 7.3 5.5 6.6 6.05 6.05 6.65 5.45 7.3 5 8 4.55 8.75 4.25 9.5 3.9 10.35 3.75 11.15 3.6 12 3.6 12.85 3.6 13.7 3.75 14.5 3.9 15.25 4.25 16 4.55 16.7 5 17.35 5.45 17.95 6.05 18.5 6.6 18.95 7.3 19.4 7.95 19.75 8.7 20.05 9.5 20.25 10.3 Z"/>
</g>
</defs>

<g transform="matrix( 1, 0, 0, 1, 0,0) ">
<use xlink:href="#Layer5_0_FILL"/>
</g>
</svg>
